<svg width="31" height="31" viewBox="0 0 31 31" fill="none" xmlns="http://www.w3.org/2000/svg">
<circle cx="15.5" cy="15.5" r="15.25" fill="white" stroke="#013088" stroke-width="0.5"/>
<path fill-rule="evenodd" clip-rule="evenodd" d="M16.903 14.1638C18.8963 14.1638 20.5108 12.5493 20.5108 10.556C20.5108 8.56271 18.8963 6.94824 16.903 6.94824C14.9097 6.94824 13.2953 8.56271 13.2953 10.556C13.2953 12.5493 14.9097 14.1638 16.903 14.1638ZM8.78558 12.3599V9.65406H6.9817V12.3599H4.27588V14.1638H6.9817V16.8696H8.78558V14.1638H11.4914V12.3599H8.78558ZM9.68752 19.5754C9.68752 17.1762 14.4949 15.9676 16.903 15.9676C19.3112 15.9676 24.1186 17.1762 24.1186 19.5754V21.3793H9.68752V19.5754Z" fill="#013088"/>
</svg>
